<svg width="50" height="50" viewBox="0 0 50 50" fill="none" xmlns="http://www.w3.org/2000/svg">
<path d="M23.4615 3.84594L23.4615 46.3459L0.576856 23.4613L23.4615 3.84594Z" fill="white"/>
<path d="M28.2555 44.6289L26.5384 46.3459L26.5384 43.1571L28.2555 44.6289Z" fill="white" fill-opacity="0.9"/>
<path d="M33.3421 39.5423L35.2969 37.5875L26.5384 30.0802L26.5384 33.7106L33.3421 39.5423Z" fill="white" fill-opacity="0.9"/>
<path d="M26.5384 26.7875L37.0699 35.8145L39.4389 33.4455L26.5384 22.3879L26.5384 26.7875Z" fill="white" fill-opacity="0.9"/>
<path d="M41.2119 31.6725L26.5384 19.0952L26.5384 13.8714L44.0247 28.8597L41.2119 31.6725Z" fill="white" fill-opacity="0.9"/>
<path d="M45.7977 27.0867L26.5384 10.5787L26.5384 3.84594L49.423 23.4613L45.7977 27.0867Z" fill="white" fill-opacity="0.9"/>
<path d="M31.5691 41.3153L30.0285 42.8559L26.5384 39.8644L26.5384 37.0033L31.5691 41.3153Z" fill="white" fill-opacity="0.9"/>
</svg>
