<svg width="65" height="19" viewBox="0 0 65 19" fill="none" xmlns="http://www.w3.org/2000/svg">
<g clip-path="url(#clip0_4554_1673)">
<path d="M18.5596 9.05357C18.5596 4.05342 14.4049 0 9.27982 0C4.15472 0 0 4.05342 0 9.05357C0 14.0537 4.15472 18.1071 9.27982 18.1071C14.4049 18.1071 18.5596 14.0537 18.5596 9.05357Z" fill="white"/>
<path fill-rule="evenodd" clip-rule="evenodd" d="M5.72879 6.80356L12.2717 6.77209L10.7052 9.07533L14.4021 9.05787L12.8354 11.3225L6.25009 11.3636L7.84132 9.07654L4.15723 9.07517L5.72879 6.80356Z" fill="black"/>
<path d="M25.0315 12.6348V10.9674L28.9232 6.29169H25.1239V4.65802H31.3946V6.20155L27.4104 10.9674H31.4754V12.6348H25.0315ZM35.9105 10.19H35.668C35.4601 10.19 35.2484 10.2012 35.0328 10.2238C34.825 10.2388 34.6363 10.2726 34.467 10.3252C34.3053 10.3777 34.1705 10.4566 34.0628 10.5618C33.955 10.6594 33.9011 10.7909 33.9011 10.9561C33.9011 11.0613 33.9242 11.1514 33.9704 11.2265C34.0243 11.3016 34.0897 11.3617 34.1667 11.4068C34.2437 11.4518 34.3322 11.4856 34.4323 11.5082C34.5324 11.5232 34.6286 11.5307 34.721 11.5307C35.1059 11.5307 35.3985 11.4293 35.5987 11.2265C35.8066 11.0162 35.9105 10.7345 35.9105 10.3815V10.19ZM32.4345 7.79015C32.7732 7.47469 33.1658 7.23809 33.6124 7.08035C34.0666 6.92262 34.5285 6.84375 34.9982 6.84375C35.4832 6.84375 35.8912 6.90384 36.2223 7.02402C36.561 7.13669 36.8344 7.31695 37.0422 7.56482C37.2501 7.80518 37.4002 8.1131 37.4926 8.48869C37.5927 8.8567 37.6427 9.2961 37.6427 9.80689V12.6348H35.9105V12.0377H35.8759C35.7295 12.2705 35.5063 12.4508 35.2061 12.5785C34.9135 12.7062 34.594 12.77 34.2476 12.77C34.0166 12.77 33.7779 12.74 33.5316 12.6799C33.2852 12.6198 33.0581 12.5222 32.8502 12.387C32.65 12.2518 32.4845 12.0715 32.3536 11.8462C32.2227 11.6208 32.1573 11.3429 32.1573 11.0124C32.1573 10.6068 32.2689 10.2801 32.4922 10.0322C32.7232 9.78435 33.0157 9.59282 33.3699 9.45762C33.7317 9.32242 34.1321 9.23229 34.5709 9.18722C35.0097 9.14215 35.437 9.11962 35.8528 9.11962V9.02949C35.8528 8.7516 35.7526 8.5488 35.5525 8.42109C35.3523 8.28589 35.1059 8.21829 34.8134 8.21829C34.5439 8.21829 34.2822 8.27462 34.0281 8.38729C33.7817 8.49995 33.57 8.63515 33.393 8.79289L32.4345 7.79015ZM45.454 9.80689C45.454 10.1974 45.3924 10.573 45.2692 10.9336C45.146 11.2941 44.9651 11.6133 44.7264 11.8912C44.4954 12.1616 44.2106 12.3795 43.8718 12.5447C43.5331 12.7099 43.1482 12.7926 42.717 12.7926C42.3629 12.7926 42.028 12.725 41.7123 12.5898C41.3967 12.4471 41.1503 12.2555 40.9732 12.0152H40.9501V15.3388H39.0562V7.02402H40.8578V7.71129H40.8924C41.0695 7.48595 41.312 7.29066 41.6199 7.12542C41.9356 6.95266 42.3052 6.86629 42.7286 6.86629C43.1443 6.86629 43.5216 6.94515 43.8603 7.10289C44.1991 7.26062 44.4839 7.47469 44.7149 7.74509C44.9536 8.01549 45.1345 8.33095 45.2576 8.69149C45.3885 9.04454 45.454 9.41634 45.454 9.80689ZM43.6178 9.80689C43.6178 9.62662 43.587 9.45014 43.5254 9.27735C43.4715 9.10457 43.3868 8.9544 43.2713 8.82669C43.1636 8.69149 43.025 8.5826 42.8556 8.49995C42.6863 8.4173 42.4899 8.37602 42.2666 8.37602C42.0511 8.37602 41.8587 8.4173 41.6892 8.49995C41.5199 8.5826 41.3736 8.69149 41.2504 8.82669C41.1349 8.96189 41.0425 9.11584 40.9732 9.28862C40.9117 9.4614 40.8809 9.63789 40.8809 9.81815C40.8809 9.99842 40.9117 10.1749 40.9732 10.3477C41.0425 10.5205 41.1349 10.6744 41.2504 10.8096C41.3736 10.9448 41.5199 11.0537 41.6892 11.1364C41.8587 11.219 42.0511 11.2603 42.2666 11.2603C42.4899 11.2603 42.6863 11.219 42.8556 11.1364C43.025 11.0537 43.1636 10.9448 43.2713 10.8096C43.3868 10.6744 43.4715 10.5205 43.5254 10.3477C43.587 10.1674 43.6178 9.98715 43.6178 9.80689ZM53.0438 9.80689C53.0438 10.1974 52.9822 10.573 52.859 10.9336C52.7358 11.2941 52.5549 11.6133 52.3162 11.8912C52.0853 12.1616 51.8004 12.3795 51.4617 12.5447C51.1229 12.7099 50.738 12.7926 50.3068 12.7926C49.9527 12.7926 49.6178 12.725 49.3021 12.5898C48.9865 12.4471 48.7402 12.2555 48.5631 12.0152H48.54V15.3388H46.6461V7.02402H48.4476V7.71129H48.4822C48.6593 7.48595 48.9018 7.29066 49.2098 7.12542C49.5254 6.95266 49.895 6.86629 50.3184 6.86629C50.7341 6.86629 51.1113 6.94515 51.4501 7.10289C51.7889 7.26062 52.0737 7.47469 52.3047 7.74509C52.5433 8.01549 52.7243 8.33095 52.8475 8.69149C52.9784 9.04454 53.0438 9.41634 53.0438 9.80689ZM51.2076 9.80689C51.2076 9.62662 51.1768 9.45014 51.1152 9.27735C51.0614 9.10457 50.9766 8.9544 50.8612 8.82669C50.7533 8.69149 50.6148 8.5826 50.4454 8.49995C50.2761 8.4173 50.0798 8.37602 49.8565 8.37602C49.6409 8.37602 49.4484 8.4173 49.279 8.49995C49.1097 8.5826 48.9634 8.69149 48.8402 8.82669C48.7247 8.96189 48.6323 9.11584 48.5631 9.28862C48.5014 9.4614 48.4707 9.63789 48.4707 9.81815C48.4707 9.99842 48.5014 10.1749 48.5631 10.3477C48.6323 10.5205 48.7247 10.6744 48.8402 10.8096C48.9634 10.9448 49.1097 11.0537 49.279 11.1364C49.4484 11.219 49.6409 11.2603 49.8565 11.2603C50.0798 11.2603 50.2761 11.219 50.4454 11.1364C50.6148 11.0537 50.7533 10.9448 50.8612 10.8096C50.9766 10.6744 51.0614 10.5205 51.1152 10.3477C51.1768 10.1674 51.2076 9.98715 51.2076 9.80689ZM58.1969 9.18722C58.1969 8.89429 58.1007 8.64264 57.9082 8.43235C57.7234 8.22207 57.4424 8.11689 57.0652 8.11689C56.8804 8.11689 56.7111 8.1469 56.5571 8.20702C56.4031 8.25957 56.2684 8.33474 56.1529 8.43235C56.0374 8.52997 55.945 8.64642 55.8757 8.78162C55.8064 8.90934 55.7679 9.04454 55.7602 9.18722H58.1969ZM59.9407 9.89702C59.9407 9.97211 59.9407 10.0473 59.9407 10.1224C59.9407 10.1974 59.9368 10.2688 59.9291 10.3364H55.7602C55.7757 10.4942 55.8219 10.6368 55.8988 10.7646C55.9835 10.8923 56.0875 11.0049 56.2106 11.1026C56.3415 11.1927 56.4839 11.2641 56.6379 11.3166C56.7996 11.3692 56.9651 11.3955 57.1345 11.3955C57.4347 11.3955 57.6888 11.3429 57.8967 11.2378C58.1045 11.1251 58.2739 10.9824 58.4048 10.8096L59.7213 11.6208C59.4518 12.0039 59.0938 12.3006 58.6473 12.5109C58.2085 12.7137 57.6965 12.8151 57.1114 12.8151C56.6802 12.8151 56.2722 12.7513 55.8873 12.6236C55.5023 12.4884 55.1636 12.2968 54.871 12.049C54.5862 11.7936 54.359 11.4818 54.1897 11.1138C54.028 10.7458 53.9472 10.3252 53.9472 9.85195C53.9472 9.3938 54.028 8.98064 54.1897 8.61262C54.3514 8.23704 54.5708 7.9216 54.8479 7.66622C55.1251 7.40333 55.4523 7.20053 55.8295 7.05782C56.2068 6.91511 56.6148 6.84375 57.0536 6.84375C57.4771 6.84375 57.8659 6.91511 58.22 7.05782C58.5741 7.19302 58.8783 7.39206 59.1323 7.65495C59.3864 7.91785 59.5827 8.23704 59.7213 8.61262C59.8675 8.9882 59.9407 9.41634 59.9407 9.89702ZM64.8452 8.53375C64.7606 8.51122 64.6759 8.49617 64.5912 8.48869C64.5142 8.4812 64.4372 8.47742 64.3602 8.47742C64.1061 8.47742 63.8906 8.52249 63.7135 8.61262C63.5442 8.70275 63.4056 8.81164 63.2978 8.93935C63.1977 9.06707 63.1245 9.20597 63.0784 9.35622C63.0322 9.50647 63.0091 9.63789 63.0091 9.75055V12.6348H61.1152V7.02402H62.9398V7.83522H62.9629C63.1092 7.5498 63.3171 7.31695 63.5865 7.13669C63.856 6.95642 64.1678 6.86629 64.5219 6.86629C64.5989 6.86629 64.672 6.87004 64.7413 6.87755C64.8183 6.88506 64.8799 6.89633 64.9261 6.91135L64.8452 8.53375Z" fill="white"/>
</g>
<defs>
<clipPath id="clip0_4554_1673">
<rect width="65" height="18.1071" fill="white"/>
</clipPath>
</defs>
</svg>
