<svg width="34" height="34" viewBox="0 0 34 34" fill="none" xmlns="http://www.w3.org/2000/svg">
<path d="M12.3384 18.9145L16.9994 23.5754L21.6628 18.9121L24.3749 21.6242L16.9994 29L9.62636 21.6266L12.3384 18.9145ZM4.99902 16.9998L7.71123 19.712L10.4233 17L7.71107 14.2878L4.99902 16.9998ZM12.3384 15.0844L16.9994 10.4235L21.6627 15.0867L24.3762 12.376L24.3749 12.3746L16.9994 4.99891L9.62612 12.372L9.62228 12.3759L12.3384 15.0844ZM23.5759 16.9983L26.2882 19.7105L29.0002 16.9985L26.288 14.2863L23.5759 16.9983Z" fill="#F3BA2F"/>
<path d="M19.7499 17.0011H19.7511L16.9992 19.7529L14.9656 17.7193H14.9655L14.7318 17.4855L14.2499 17.0035L14.2461 16.9998L14.2499 16.9958L16.9992 14.2464L19.7511 16.9982L19.7524 16.9998L19.7499 17.0011Z" fill="#F3BA2F"/>
</svg>
