<svg width="34" height="34" viewBox="0 0 34 34" fill="none" xmlns="http://www.w3.org/2000/svg">
<path d="M29.9983 22.1884C29.9224 20.6573 29.9897 19.1021 29.7422 17.5993C29.0548 13.4296 26.8213 10.2563 23.1218 8.1921C18.2847 5.49324 12.2016 6.28895 8.18812 10.0961C5.42423 12.7175 4.00908 15.9347 4.00046 19.7531C3.99615 21.6623 3.99615 23.5723 3.99874 25.4815C4.00046 26.5889 4.76883 27.3691 5.85024 27.3717C6.95321 27.3743 7.75952 26.5924 7.7647 25.4824C7.77332 23.6593 7.76125 21.8354 7.7647 20.0123C7.76642 19.1219 8.22606 18.4321 8.88836 18.1341C10.0845 17.5968 11.3711 18.6121 11.3651 19.8521C11.3565 21.5891 11.3651 23.3269 11.3677 25.0638C11.3677 25.2361 11.3694 25.4092 11.3858 25.5797C11.4988 26.7431 12.2602 27.4062 13.4365 27.3709C14.3998 27.3416 15.1647 26.5045 15.1724 25.4247C15.1862 23.587 15.1742 21.7493 15.1785 19.9115C15.1811 19.0082 15.733 18.2418 16.4988 18.0566C17.694 17.7673 18.7426 18.5948 18.753 19.8633C18.7677 21.701 18.759 23.5387 18.7573 25.3764C18.7573 26.0843 19.0186 26.6544 19.6033 27.0738C20.6856 27.8488 22.3292 27.1625 22.5121 25.8501C22.5474 25.5952 22.5638 25.336 22.5647 25.0793C22.5681 23.3854 22.5716 21.6907 22.5612 19.9968C22.5569 19.2674 22.7984 18.6603 23.4322 18.284C24.6835 17.5408 26.1513 18.3942 26.1607 19.8685C26.1728 21.6916 26.1642 23.5155 26.1547 25.3385C26.1469 26.8111 27.3534 27.7214 28.7306 27.2718C29.3929 27.0557 29.9129 26.3693 29.9224 25.6382C29.937 24.4894 29.9267 23.3415 29.9267 22.1927C29.9508 22.1919 29.975 22.1902 30 22.1893L29.9983 22.1884Z" fill="#5942DA"/>
</svg>
